<?xml version="1.0" encoding="UTF-8" standalone="no"?>
<!-- Created with Inkscape (http://www.inkscape.org/) -->
<svg xmlns:rdf="http://www.w3.org/1999/02/22-rdf-syntax-ns#" xmlns="http://www.w3.org/2000/svg" xmlns:cc="http://creativecommons.org/ns#" xmlns:dc="http://purl.org/dc/elements/1.1/" xmlns:svg="http://www.w3.org/2000/svg" xmlns:inkscape="http://www.inkscape.org/namespaces/inkscape" xmlns:sodipodi="http://sodipodi.sourceforge.net/DTD/sodipodi-0.dtd" xmlns:ns1="http://sozi.baierouge.fr" xmlns:xlink="http://www.w3.org/1999/xlink" id="svg5105" viewBox="0 0 744.09 1052.4" version="1.1" inkscape:version="0.91 r13725">
  <g id="layer1">
    <g id="g5170" transform="translate(-1677.6 -368.2)">
      <path id="path5049" style="fill:#0000ff" d="m1944.8 932.25c-0.068-0.0166-31.296 32.136-34.281 44.344s4.5111 24.546 16.719 27.531 24.515-4.511 27.5-16.719c2.9851-12.208-9.9376-55.156-9.9376-55.156zm156.31 0c-0.068-0.0166-31.296 32.136-34.281 44.344-2.9851 12.208 4.4798 24.546 16.688 27.531s24.546-4.5109 27.531-16.719c2.9851-12.208-9.9374-55.156-9.9374-55.156zm156.31 0c-0.068-0.0166-31.296 32.136-34.281 44.344s4.4798 24.546 16.688 27.531 24.546-4.511 27.531-16.719c2.9849-12.208-9.9376-55.156-9.9376-55.156zm-254.09 40c-0.068-0.0166-31.296 32.136-34.281 44.344-2.9849 12.208 4.4798 24.546 16.688 27.531s24.546-4.5109 27.531-16.719-9.9375-55.156-9.9375-55.156zm156.31 0c-0.068-0.0166-31.296 32.136-34.281 44.344s4.4797 24.546 16.687 27.531c12.208 2.985 24.515-4.5109 27.5-16.719 2.9851-12.208-9.9062-55.156-9.9062-55.156zm-254.09 40c-0.068-0.017-31.296 32.136-34.281 44.344s4.4798 24.546 16.688 27.531 24.546-4.5109 27.531-16.719-9.9376-55.156-9.9376-55.156zm156.28 0c-0.068-0.017-31.265 32.136-34.25 44.344s4.4797 24.546 16.688 27.531 24.515-4.5109 27.5-16.719-9.9375-55.156-9.9375-55.156zm156.31 0c-0.068-0.017-31.265 32.136-34.25 44.344s4.4797 24.546 16.688 27.531 24.515-4.511 27.5-16.719-9.9375-55.156-9.9375-55.156zm-254.09 40c-0.068-0.017-31.265 32.136-34.25 44.344-2.9849 12.208 4.4799 24.546 16.688 27.531s24.515-4.511 27.5-16.719-9.9376-55.156-9.9376-55.156zm156.31 0c-0.068-0.017-31.296 32.136-34.281 44.344s4.5111 24.546 16.719 27.531 24.515-4.511 27.5-16.719c2.9851-12.208-9.9374-55.156-9.9374-55.156zm-254.09 40c-0.068-0.017-31.265 32.136-34.25 44.344s4.4797 24.546 16.688 27.531 24.515-4.511 27.5-16.719-9.9375-55.156-9.9375-55.156zm156.31 0c-0.068-0.017-31.296 32.136-34.281 44.344-2.9849 12.208 4.511 24.546 16.719 27.531s24.515-4.511 27.5-16.719-9.9375-55.156-9.9375-55.156zm156.31 0c-0.068-0.017-31.296 32.136-34.281 44.344s4.511 24.546 16.719 27.531 24.515-4.511 27.5-16.719-9.9375-55.156-9.9375-55.156z"/>
      <path id="path5045" style="fill:#00ffff" d="m1944.8 932.25c-0.068-0.0166-31.296 32.136-34.281 44.344s4.5111 24.546 16.719 27.531 24.515-4.511 27.5-16.719c2.9851-12.208-9.9376-55.156-9.9376-55.156zm156.31 0c-0.068-0.0166-31.296 32.136-34.281 44.344-2.9851 12.208 4.4798 24.546 16.688 27.531s24.546-4.5109 27.531-16.719c2.9851-12.208-9.9374-55.156-9.9374-55.156zm156.31 0c-0.068-0.0166-31.296 32.136-34.281 44.344s4.4798 24.546 16.688 27.531 24.546-4.511 27.531-16.719c2.9849-12.208-9.9376-55.156-9.9376-55.156zm-254.09 40c-0.068-0.0166-31.296 32.136-34.281 44.344-2.9849 12.208 4.4798 24.546 16.688 27.531s24.546-4.5109 27.531-16.719-9.9375-55.156-9.9375-55.156zm156.31 0c-0.068-0.0166-31.296 32.136-34.281 44.344s4.4797 24.546 16.687 27.531c12.208 2.985 24.515-4.5109 27.5-16.719 2.9851-12.208-9.9062-55.156-9.9062-55.156zm-254.09 40c-0.068-0.017-31.296 32.136-34.281 44.344s4.4798 24.546 16.688 27.531 24.546-4.5109 27.531-16.719-9.9376-55.156-9.9376-55.156zm156.28 0c-0.068-0.017-31.265 32.136-34.25 44.344s4.4797 24.546 16.688 27.531 24.515-4.5109 27.5-16.719-9.9375-55.156-9.9375-55.156zm156.31 0c-0.068-0.017-31.265 32.136-34.25 44.344s4.4797 24.546 16.688 27.531 24.515-4.511 27.5-16.719-9.9375-55.156-9.9375-55.156zm-254.09 40c-0.068-0.017-31.265 32.136-34.25 44.344-2.9849 12.208 4.4799 24.546 16.688 27.531s24.515-4.511 27.5-16.719-9.9376-55.156-9.9376-55.156zm156.31 0c-0.068-0.017-31.296 32.136-34.281 44.344s4.5111 24.546 16.719 27.531 24.515-4.511 27.5-16.719c2.9851-12.208-9.9374-55.156-9.9374-55.156zm-254.09 40c-0.068-0.017-31.265 32.136-34.25 44.344s4.4797 24.546 16.688 27.531 24.515-4.511 27.5-16.719-9.9375-55.156-9.9375-55.156zm156.31 0c-0.068-0.017-31.296 32.136-34.281 44.344-2.9849 12.208 4.511 24.546 16.719 27.531s24.515-4.511 27.5-16.719-9.9375-55.156-9.9375-55.156zm156.31 0c-0.068-0.017-31.296 32.136-34.281 44.344s4.511 24.546 16.719 27.531 24.515-4.511 27.5-16.719-9.9375-55.156-9.9375-55.156z"/>
      <path id="path5051" style="fill:#b3b3b3" d="m2071.1 624c-30.735 0-58.037 14.71-75.25 37.469-14.594-9.2676-31.901-14.625-50.469-14.625-46.876 0-85.768 34.216-93.062 79.031-43.073 8.7073-75.531 46.765-75.531 92.406 0 52.073 42.24 94.281 94.312 94.281 21.236 0 40.832-7.0284 56.594-18.875 9.1676 2.9727 18.936 4.5938 29.094 4.5938 9.8334 0 19.338-1.5196 28.25-4.3125 16.72 15.104 38.881 24.312 63.188 24.312 24.68 0 47.163-9.4792 63.969-25 15.139 10.36 33.458 16.406 53.188 16.406 15.658 0 30.411-3.809 43.406-10.562 6.2741 1.3153 12.772 2 19.438 2 52.072 0 94.281-42.209 94.281-94.281 0-52.073-42.209-94.281-94.281-94.281-0.5112 0-1.022 0.0231-1.5313 0.0312-16.788-20.342-41.934-33.528-70.188-34.281-15.041-32.094-47.62-54.312-85.406-54.312z"/>
      <path id="path5053" style="block-progression:tb;text-indent:0;color:#000000;text-transform:none;fill:#000000" d="m2071 619.98c-30.771 0-58.169 14.271-76.188 36.438-14.565-8.5325-31.45-13.562-49.531-13.562-47.894 0-87.757 34.34-96.437 79.75-43.6 10.064-76.125 49.079-76.125 95.688 0 54.234 44.047 98.281 98.281 98.281 21.379 0 41.177-6.8926 57.312-18.5 9.0039 2.7182 18.524 4.2188 28.406 4.2188 9.4809 0 18.632-1.3966 27.312-3.9062 17.216 14.849 39.622 23.906 64.125 23.906 24.598 0 47.043-9.1417 64.281-24.094 15.27 9.771 33.384 15.5 52.844 15.5 15.814 0 30.753-3.79 44-10.438 6.1241 1.1918 12.418 1.875 18.875 1.875 54.234 0 98.281-44.047 98.281-98.281 0-54.171-43.946-98.179-98.094-98.281-16.996-19.749-41.732-32.652-69.469-34.062-16.121-32.276-49.386-54.531-87.875-54.531zm0 8c36.216 0 67.413 21.306 81.812 52.031a4.0004 4.0004 0 0 0 3.5313 2.3125c27.062 0.72951 51.114 13.336 67.187 32.812a4.0004 4.0004 0 0 0 3.1563 1.4688c0.5879-0.009 1.0784-0.0312 1.4687-0.0312 49.911 0 90.281 40.37 90.281 90.281s-40.37 90.281-90.281 90.281c-6.4009 0-12.648-0.64501-18.656-1.9062a4.0004 4.0004 0 0 0 -2.6562 0.3437c-12.438 6.4602-26.563 10.125-41.563 10.125-18.918 0-36.434-5.82-50.937-15.75a4.0004 4.0004 0 0 0 -4.9688 0.375c-16.101 14.874-37.56 23.969-61.219 23.969-23.295 0-44.485-8.8145-60.5-23.281a4.0004 4.0004 0 0 0 -3.875 -0.84375c-8.5404 2.679-17.63 4.125-27.062 4.125-9.7392 0-19.093-1.557-27.875-4.4062a4.0004 4.0004 0 0 0 -3.6563 0.625c-15.096 11.346-33.835 18.062-54.188 18.062-49.911 0-90.281-40.37-90.281-90.281 0-43.755 31.062-80.174 72.312-88.5a4.0004 4.0004 0 0 0 3.1563 -3.25c6.9849-42.909 44.165-75.687 89.094-75.687 17.796 0 34.339 5.1272 48.313 14a4.0004 4.0004 0 0 0 5.3437 -0.96875c16.486-21.809 42.597-35.906 72.062-35.906z"/>
      <path id="path5055" style="fill:#cccccc" d="m2069.7 636.77c-35.258 0-65.632 21.442-79.562 52.312 0.1075 0.0695 0.2052 0.14877 0.3125 0.21875 16.009-21.79 41.405-35.875 70-35.875 28.683 0 54.152 14.184 70.156 36.094-0.2189 0.039-0.4381 0.0844-0.6563 0.125 3.4635 4.8588 6.467 10.076 8.9687 15.594 5.4214 0.15107 10.733 0.80256 15.875 1.9062 0.1567 0.0322 0.3122 0.0606 0.4688 0.0937 12.648 2.7877 24.298 8.3256 34.344 16-0.1341 0.0335-0.2725 0.0598-0.4063 0.0937 5.1962 3.7285 9.9347 7.9739 14.156 12.594 0.5101-0.007 1.0191-0.0312 1.5312-0.0312 52.164 0 94.438 38.201 94.438 85.312 0 12.126-2.7939 23.649-7.8437 34.094 11.194-14.02 17.812-31.208 17.812-49.812 0-47.112-42.273-85.312-94.437-85.312-0.4257 0-0.857 0.0262-1.2813 0.0312-15.792-18.911-38.852-31.105-64.719-31.969-14.102-30.408-44.229-51.469-79.156-51.469zm-123.94 21.125c-2.2098-0.036-4.4141 0.0385-6.6562 0.1875-34.258 2.277-62.254 25.821-73.063 57.594 13.681-23.059 37.392-39.05 65.313-40.906 16.436-1.0925 32.103 2.8613 45.594 10.594 3.2767-5.24 7.1138-10.086 11.375-14.469-12.492-8.0316-27.094-12.748-42.562-13zm128.62 29.844c-24.868 0.0657-47.757 10.099-64.156 26.531 1.8694 1.3418 3.7154 2.7172 5.4687 4.1875 17.623-12.541 39.981-18.892 63.5-16.25 49.606 5.5732 85.433 49.041 80.031 97.125-0.6719 5.9793-1.9321 11.774-3.75 17.281 5.0969-9.4034 8.4577-19.901 9.7187-31.125 5.4022-48.084-30.425-91.583-80.031-97.156-3.6199-0.4067-7.2286-0.60314-10.781-0.59375zm-151.94 25.219c-6.9318 0.005-13.973 0.79948-21.031 2.4375-20.465 4.7496-37.744 15.896-50.062 30.719 0.8633-4.6006 2.1185-9.0522 3.6874-13.375-26.664 6.9561-48.436 25.436-59.312 49.594 12.852-17.277 31.994-29.865 54.219-34.5-12.477 15.784-19.475 35.483-19 56 5.4198-34.771 32.128-64.74 69.469-73.406 22.698-5.2676 45.308-1.736 64.094 8.3125 4.4141-2.5463 9.125-4.739 14.031-6.5625-15.57-12.217-35.298-19.233-56.094-19.219z"/>
      <path id="path5057" style="fill:#0000ff" d="m1942.9 936.05c-3.737 3.3927 1.3043 8.4656 0.8125 12.656 2.6631 12.258 4.9739 27.734-5.4687 37.125-4.2848 4.4128-10.254 6.8151-16.313 7.5625 10.383 7.5997 27.974 1.1564 29.063-12.312 1.0882-12.434-3.4016-24.4-5.7563-36.498-0.7911-2.7978-1.4833-5.9858-2.3375-8.5334zm156.31 0c-3.737 3.3927 1.3043 8.4656 0.8125 12.656 2.571 12.007 4.9595 27.176-4.9375 36.562-4.3266 4.7778-10.601 7.348-16.844 8.125 10.424 7.5345 27.762 1.2333 29.062-12.156 1.0874-12.259-3.2657-24.09-5.5966-36.03-0.8342-3.005-1.5842-6.405-2.4971-9.1575zm156.31 0c-3.737 3.3927 1.3043 8.4656 0.8125 12.656 2.571 12.007 4.9595 27.176-4.9375 36.562-4.3266 4.7778-10.601 7.348-16.844 8.125 10.424 7.5345 27.762 1.2333 29.063-12.156 1.0873-12.259-3.2658-24.09-5.5967-36.03-0.8342-3.005-1.5842-6.405-2.4971-9.1575zm-254.09 40c-3.737 3.3927 1.3044 8.4656 0.8126 12.656 2.571 12.007 4.9595 27.176-4.9376 36.563-4.3265 4.7778-10.601 7.348-16.844 8.125 10.428 7.5391 27.761 1.2235 29.062-12.156 1.0873-12.259-3.2657-24.09-5.5966-36.03-0.8343-3.005-1.5843-6.405-2.4972-9.1575zm156.31-0.0312c-3.9457 3.6467 1.5188 9.2074 0.9687 13.781 2.6943 11.95 4.4145 26.989-5.6563 36.031-3.8901 4.627-11.515 6.6916-16 7.7813 10.458 7.2139 27.568 0.8827 28.781-12.531 0.9738-12.711-3.5753-25.094-6-37.469-0.68-2.511-1.3278-5.2213-2.0937-7.5938zm-254.1 39.98c-3.737 3.3927 1.3043 8.4656 0.8125 12.656 2.571 12.006 4.9595 27.176-4.9375 36.562-4.3266 4.7778-10.601 7.348-16.844 8.125 10.424 7.5345 27.762 1.2333 29.063-12.156 1.0873-12.259-3.2658-24.09-5.5967-36.03-0.8342-3.005-1.5842-6.4049-2.4971-9.1575zm156.28 0c-3.737 3.3927 1.3044 8.4656 0.8126 12.656 2.663 12.258 4.9738 27.734-5.4688 37.125-3.8901 4.627-11.515 6.6916-16 7.7812 10.226 7.053 26.845 1.1575 28.656-11.688 1.4037-12.118-3.0311-23.974-5.25-35.75-0.918-3.3244-1.7493-7.0566-2.75-10.125zm156.31 0c-3.7371 3.3927 1.3043 8.4656 0.8124 12.656 2.6631 12.258 4.9739 27.734-5.4687 37.125-3.8901 4.627-11.515 6.6916-16 7.7812 10.226 7.0527 26.847 1.1576 28.656-11.688 1.4036-12.118-3.0312-23.974-5.25-35.75-0.9181-3.3244-1.7494-7.0566-2.75-10.125zm-254.09 40c-3.737 3.3927 1.3043 8.4656 0.8125 12.656 2.6631 12.258 4.9739 27.734-5.4687 37.125-3.8902 4.627-11.515 6.6916-16 7.7812 10.226 7.0564 26.845 1.1551 28.656-11.688 1.4037-12.118-3.0311-23.974-5.25-35.75-0.918-3.3244-1.7494-7.0566-2.75-10.125zm156.31 0c-3.737 3.3927 1.3043 8.4656 0.8125 12.656 2.6631 12.258 4.9739 27.734-5.4688 37.125-4.2847 4.4128-10.254 6.8151-16.312 7.5625 10.383 7.5997 27.974 1.1564 29.062-12.312 1.0883-12.434-3.4015-24.4-5.7562-36.498-0.7911-2.7977-1.4833-5.9858-2.3375-8.5334zm-254.09 40c-3.7371 3.3927 1.3043 8.4656 0.8124 12.656 2.6631 12.258 4.9739 27.734-5.4687 37.125-3.8901 4.627-11.515 6.6916-16 7.7812 10.226 7.0527 26.847 1.1576 28.656-11.688 1.4036-12.118-3.0312-23.974-5.25-35.75-0.9181-3.3244-1.7494-7.0566-2.75-10.125zm156.31 0c-3.737 3.3927 1.3044 8.4656 0.8126 12.656 2.663 12.258 4.9738 27.734-5.4688 37.125-4.2847 4.4128-10.254 6.8151-16.312 7.5625 10.383 7.5997 27.974 1.1564 29.062-12.312 1.0883-12.434-3.4016-24.4-5.7562-36.498-0.7912-2.7977-1.4833-5.9858-2.3376-8.5334zm156.31 0c-3.7371 3.3927 1.3043 8.4656 0.8124 12.656 2.6631 12.258 4.9739 27.734-5.4687 37.125-4.2847 4.4128-10.254 6.8151-16.312 7.5625 10.383 7.5997 27.974 1.1564 29.062-12.312 1.0883-12.434-3.4016-24.4-5.7562-36.498-0.7912-2.7977-1.4833-5.9858-2.3375-8.5334z"/>
      <path id="path5047" style="block-progression:tb;text-indent:0;color:#000000;text-transform:none;fill:#000000" d="m1945.8 928.38c-0.0003-0.00006-3.1946 0.57505-3.3438 0.6875s-0.2087 0.1513-0.25 0.1875c-0.083 0.0724-0.097 0.0981-0.125 0.125-0.057 0.0539-0.083 0.0837-0.125 0.125-0.083 0.0826-0.1886 0.1863-0.3125 0.3125-0.2478 0.2524-0.5905 0.60383-1.0313 1.0625-0.8815 0.91734-2.1498 2.2269-3.6562 3.8438-3.0128 3.2338-7.0438 7.6926-11.188 12.531-4.1437 4.8387-8.3801 10.044-11.844 14.938-3.4637 4.8936-6.1866 9.2472-7.2188 13.469-3.4997 14.313 5.3451 28.844 19.656 32.344 14.311 3.4993 28.815-5.3513 32.313-19.656 1.0329-4.2244 0.6002-9.3093-0.2188-15.25s-2.1792-12.545-3.625-18.75c-2.8916-12.409-6.125-23.25-6.125-23.25a4.0004 4.0004 0 0 0 -2.9062 -2.7188zm156.31 0c-0.0002-0.00006-3.1943 0.57497-3.3437 0.6875s-0.2086 0.15127-0.25 0.1875c-0.083 0.0725-0.097 0.0981-0.125 0.125-0.057 0.0539-0.083 0.0837-0.125 0.125-0.083 0.0827-0.1886 0.18629-0.3125 0.3125-0.2478 0.25242-0.5905 0.60383-1.0312 1.0625-0.8816 0.91734-2.1499 2.2269-3.6563 3.8438-3.0128 3.2338-7.0438 7.6926-11.188 12.531-4.1437 4.8387-8.38 10.044-11.844 14.938-3.4637 4.8936-6.1865 9.2472-7.2187 13.469-3.4983 14.306 5.3124 28.844 19.625 32.344 14.313 3.4997 28.844-5.345 32.344-19.656 1.033-4.2244 0.6002-9.3093-0.2187-15.25s-2.1792-12.545-3.625-18.75c-2.8916-12.409-6.125-23.25-6.125-23.25a4.0004 4.0004 0 0 0 -2.9063 -2.7188zm156.31 0c-0.0003-0.00006-3.1946 0.57505-3.3438 0.6875s-0.2087 0.1513-0.25 0.1875c-0.083 0.0724-0.097 0.0981-0.125 0.125-0.057 0.0539-0.083 0.0837-0.125 0.125-0.083 0.0826-0.1886 0.1863-0.3125 0.3125-0.2478 0.2524-0.5905 0.60383-1.0313 1.0625-0.8815 0.91734-2.1498 2.2269-3.6562 3.8438-3.0128 3.2338-7.0438 7.6926-11.188 12.531-4.1437 4.8387-8.3801 10.044-11.844 14.938-3.4637 4.8936-6.1866 9.2472-7.2188 13.469-3.4982 14.306 5.3124 28.844 19.625 32.344 14.313 3.4997 28.844-5.3451 32.344-19.656 1.0329-4.2244 0.6002-9.3093-0.2188-15.25s-2.1792-12.545-3.625-18.75c-2.8916-12.409-6.125-23.25-6.125-23.25a4.0004 4.0004 0 0 0 -2.9062 -2.7188zm-315.5 11.688c1.1643 4.2028 2.6741 9.8674 4.125 16.094 1.4117 6.0584 2.7355 12.486 3.5 18.031 0.7644 5.5456 0.8345 10.402 0.375 12.281-2.4723 10.111-12.583 16.252-22.688 13.781-10.104-2.4706-16.252-12.616-13.781-22.719 0.4603-1.8823 2.7667-6.1508 6-10.719 3.2333-4.568 7.3613-9.6517 11.406-14.375 4.045-4.7233 8.0139-9.0783 10.969-12.25 0.044-0.0476 0.05-0.0779 0.094-0.125zm156.31 0c1.1643 4.2028 2.6742 9.8674 4.125 16.094 1.4117 6.0584 2.7356 12.486 3.5 18.031 0.7645 5.5456 0.8346 10.402 0.375 12.281-2.4705 10.104-12.616 16.252-22.719 13.781-10.103-2.4703-16.222-12.61-13.75-22.719 0.4603-1.8823 2.7667-6.1508 6-10.719 3.2333-4.568 7.3613-9.6516 11.406-14.375 4.0449-4.7234 8.0138-9.0783 10.969-12.25 0.044-0.0476 0.05-0.0779 0.094-0.125zm156.31 0c1.1642 4.2028 2.6741 9.8674 4.125 16.094 1.4117 6.0584 2.7354 12.486 3.5 18.031 0.7645 5.5456 0.8345 10.402 0.375 12.281-2.4708 10.104-12.616 16.252-22.719 13.781-10.103-2.4703-16.222-12.61-13.75-22.719 0.4603-1.8823 2.7667-6.1508 6-10.719 3.2333-4.568 7.3613-9.6517 11.406-14.375 4.045-4.7233 8.0139-9.0783 10.969-12.25 0.044-0.0476 0.05-0.0779 0.094-0.125zm-251.22 28.312c-0.0003-0.00006-3.1945 0.57505-3.3438 0.6875-0.1492 0.11245-0.2086 0.1513-0.25 0.1875-0.083 0.0724-0.097 0.0981-0.125 0.125-0.057 0.0539-0.083 0.0837-0.125 0.125-0.083 0.0826-0.1886 0.1863-0.3124 0.3125-0.2478 0.2524-0.5905 0.60383-1.0313 1.0625-0.8815 0.91734-2.1499 2.2269-3.6563 3.8438-3.0127 3.2338-7.0437 7.6926-11.187 12.531-4.1438 4.8387-8.3801 10.044-11.844 14.937-3.4637 4.8936-6.1865 9.2472-7.2188 13.469-3.498 14.306 5.3123 28.844 19.625 32.344 14.313 3.4997 28.844-5.345 32.344-19.656 1.0329-4.2244 0.6002-9.3094-0.2188-15.25-0.8189-5.9407-2.1791-12.545-3.625-18.75-2.8916-12.409-6.125-23.25-6.125-23.25a4.0004 4.0004 0 0 0 -2.9062 -2.7188zm156.31 0c-0.0003-0.00006-3.1945 0.57504-3.3437 0.6875-0.1493 0.11246-0.2087 0.1513-0.25 0.1875-0.083 0.0724-0.097 0.0981-0.125 0.125-0.057 0.0539-0.083 0.0837-0.125 0.125-0.083 0.0827-0.1887 0.1863-0.3126 0.3125-0.2477 0.25241-0.5904 0.60383-1.0312 1.0625-0.8815 0.91734-2.1499 2.2269-3.6562 3.8438-3.0128 3.2338-7.0438 7.6926-11.188 12.531-4.1437 4.8387-8.38 10.044-11.844 14.937-3.4637 4.8936-6.1865 9.2472-7.2187 13.469-3.4982 14.306 5.3123 28.844 19.625 32.344 14.311 3.4993 28.815-5.3513 32.312-19.656 1.0326-4.2229 0.6284-9.3096-0.1874-15.25-0.8159-5.9405-2.1832-12.545-3.625-18.75-2.8837-12.409-6.125-23.25-6.125-23.25a4.0004 4.0004 0 0 0 -2.9063 -2.7188zm-159.19 11.688c1.1643 4.2028 2.6742 9.8674 4.125 16.094 1.4117 6.0583 2.7355 12.486 3.5 18.031 0.7645 5.5456 0.8346 10.402 0.375 12.281-2.4707 10.104-12.616 16.252-22.719 13.781-10.103-2.4703-16.222-12.61-13.75-22.719 0.4603-1.8824 2.7668-6.1508 6-10.719 3.2333-4.568 7.3613-9.6516 11.406-14.375 4.045-4.7233 8.0138-9.0783 10.969-12.25 0.044-0.0476 0.05-0.0779 0.094-0.125zm156.34 0c1.1593 4.1978 2.6543 9.8997 4.0937 16.094 1.4079 6.0584 2.7071 12.485 3.4687 18.031 0.7617 5.5459 0.835 10.4 0.375 12.281-2.4721 10.111-12.583 16.252-22.687 13.781-10.103-2.4703-16.222-12.61-13.75-22.719 0.4602-1.8823 2.7667-6.1508 6-10.719 3.2332-4.568 7.3612-9.6516 11.406-14.375 4.045-4.7234 8.0138-9.0783 10.969-12.25 0.05-0.0541 0.075-0.0715 0.125-0.125zm-251.25 28.312c-0.0003 0-3.1946 0.5751-3.3438 0.6875-0.1492 0.1125-0.2087 0.1513-0.25 0.1875-0.083 0.072-0.097 0.098-0.125 0.125-0.057 0.054-0.083 0.084-0.125 0.125-0.083 0.083-0.1886 0.1863-0.3125 0.3125-0.2478 0.2524-0.5905 0.6039-1.0313 1.0625-0.8815 0.9174-2.1498 2.2269-3.6562 3.8438-3.0128 3.2337-7.0438 7.6925-11.188 12.531-4.1437 4.8387-8.3801 10.044-11.844 14.938-3.4637 4.8936-6.1866 9.2472-7.2188 13.469-3.4982 14.306 5.3124 28.844 19.625 32.344 14.313 3.4997 28.844-5.345 32.344-19.656 1.0329-4.2244 0.6002-9.3093-0.2188-15.25s-2.1792-12.545-3.625-18.75c-2.8916-12.41-6.125-23.25-6.125-23.25a4.0004 4.0004 0 0 0 -2.9062 -2.7188zm156.28 0c-0.0003 0-3.1944 0.5749-3.3438 0.6875-0.1493 0.1126-0.2086 0.1513-0.25 0.1875-0.083 0.072-0.097 0.098-0.125 0.125-0.057 0.054-0.083 0.084-0.125 0.125-0.083 0.083-0.1887 0.1863-0.3124 0.3125-0.2476 0.2525-0.591 0.6039-1.0313 1.0625-0.8807 0.9174-2.1201 2.2269-3.625 3.8438-3.0098 3.2338-7.0477 7.6925-11.188 12.531-4.1398 4.8387-8.3831 10.044-11.844 14.938-3.4606 4.8935-6.1868 9.2488-7.2187 13.469-3.4981 14.306 5.3123 28.844 19.625 32.344 14.311 3.4993 28.815-5.3513 32.312-19.656 1.0329-4.2244 0.6002-9.3093-0.2188-15.25-0.8189-5.9407-2.1791-12.545-3.625-18.75-2.8916-12.41-6.125-23.25-6.125-23.25a4.0004 4.0004 0 0 0 -2.9062 -2.7188zm156.31 0c-0.0003 0-3.1944 0.5749-3.3437 0.6875-0.1494 0.1126-0.2087 0.1513-0.25 0.1875-0.083 0.072-0.097 0.098-0.125 0.125-0.057 0.054-0.084 0.084-0.125 0.125-0.083 0.083-0.1888 0.1863-0.3126 0.3125-0.2475 0.2525-0.5909 0.6039-1.0312 1.0625-0.8807 0.9174-2.1201 2.2269-3.625 3.8438-3.0098 3.2338-7.0477 7.6925-11.188 12.531-4.1398 4.8387-8.3831 10.044-11.844 14.938-3.4607 4.8935-6.1869 9.2488-7.2188 13.469-3.4981 14.306 5.3123 28.844 19.625 32.344 14.311 3.4994 28.815-5.3513 32.312-19.656 1.0329-4.2244 0.6002-9.3093-0.2187-15.25-0.819-5.9407-2.1792-12.545-3.625-18.75-2.8917-12.41-6.125-23.25-6.125-23.25a4.0004 4.0004 0 0 0 -2.9063 -2.7188zm-315.47 11.688c1.1642 4.2028 2.6741 9.8674 4.125 16.094 1.4117 6.0583 2.7355 12.486 3.5 18.031 0.7644 5.5456 0.8345 10.402 0.375 12.281-2.4707 10.104-12.616 16.252-22.719 13.781-10.103-2.4703-16.222-12.61-13.75-22.719 0.4603-1.8824 2.7667-6.1508 6-10.719 3.2333-4.5679 7.3613-9.6516 11.406-14.375 4.045-4.7233 8.0139-9.0783 10.969-12.25 0.044-0.048 0.05-0.078 0.094-0.125zm156.28 0c1.1643 4.2028 2.6742 9.8674 4.125 16.094 1.4117 6.0583 2.7355 12.486 3.5 18.031 0.7645 5.5456 0.8346 10.402 0.375 12.281-2.4722 10.111-12.583 16.252-22.688 13.781-10.103-2.4703-16.222-12.61-13.75-22.719 0.4606-1.8839 2.7695-6.1507 6-10.719 3.2305-4.568 7.3339-9.6516 11.375-14.375 4.0411-4.7233 8.0167-9.0783 10.969-12.25 0.044-0.047 0.05-0.078 0.094-0.125zm156.31 0c1.1643 4.2028 2.6742 9.8674 4.125 16.094 1.4117 6.0583 2.7355 12.486 3.5 18.031 0.7645 5.5456 0.8346 10.402 0.375 12.281-2.4722 10.111-12.583 16.252-22.688 13.781-10.103-2.4703-16.222-12.61-13.75-22.719 0.4606-1.8839 2.7695-6.1507 6-10.719 3.2305-4.568 7.3339-9.6516 11.375-14.375 4.0411-4.7233 8.0167-9.0783 10.969-12.25 0.044-0.047 0.05-0.078 0.094-0.125zm-251.22 28.312c-0.0003 0-3.1945 0.5749-3.3438 0.6875s-0.2087 0.1513-0.25 0.1875c-0.083 0.072-0.097 0.098-0.125 0.125-0.057 0.054-0.083 0.084-0.125 0.125-0.083 0.083-0.1887 0.1863-0.3125 0.3125-0.2475 0.2525-0.5909 0.6039-1.0313 1.0625-0.8806 0.9174-2.12 2.2269-3.625 3.8438-3.0098 3.2338-7.0477 7.6925-11.187 12.531-4.1398 4.8387-8.3832 10.044-11.844 14.938-3.4606 4.8935-6.1868 9.2489-7.2188 13.469-3.498 14.306 5.3124 28.844 19.625 32.344 14.311 3.4993 28.814-5.3514 32.313-19.656 1.0329-4.2244 0.6002-9.3093-0.2188-15.25s-2.1792-12.545-3.625-18.75c-2.8916-12.41-6.125-23.25-6.125-23.25a4.0004 4.0004 0 0 0 -2.9062 -2.7188zm156.31 0c-0.0002 0-3.1943 0.575-3.3437 0.6875-0.1494 0.1126-0.2086 0.1513-0.25 0.1875-0.083 0.072-0.097 0.098-0.125 0.125-0.057 0.054-0.083 0.084-0.125 0.125-0.083 0.083-0.1886 0.1863-0.3125 0.3125-0.2478 0.2525-0.5905 0.6039-1.0312 1.0625-0.8816 0.9174-2.1499 2.2269-3.6563 3.8438-3.0128 3.2338-7.0438 7.6925-11.188 12.531-4.1437 4.8387-8.38 10.044-11.844 14.938-3.4637 4.8936-6.1865 9.2472-7.2187 13.469-3.4997 14.313 5.3452 28.844 19.656 32.344 14.311 3.4993 28.815-5.3513 32.312-19.656 1.033-4.2245 0.6002-9.3093-0.2187-15.25s-2.1792-12.545-3.625-18.75c-2.8916-12.41-6.125-23.25-6.125-23.25a4.0004 4.0004 0 0 0 -2.9063 -2.7188zm-159.19 11.688c1.1642 4.2028 2.6741 9.8674 4.125 16.094 1.4117 6.0583 2.7355 12.486 3.5 18.031 0.7644 5.5456 0.8345 10.402 0.375 12.281-2.4724 10.111-12.583 16.252-22.688 13.781-10.103-2.4703-16.222-12.61-13.75-22.719 0.4607-1.884 2.7695-6.1507 6-10.719 3.2306-4.568 7.334-9.6516 11.375-14.375 4.0411-4.7233 8.0168-9.0783 10.969-12.25 0.044-0.047 0.05-0.078 0.094-0.125zm156.31 0c1.1643 4.2028 2.6742 9.8674 4.125 16.094 1.4117 6.0583 2.7356 12.486 3.5 18.031 0.7645 5.5456 0.8346 10.402 0.375 12.281-2.4721 10.11-12.583 16.252-22.687 13.781-10.104-2.4706-16.252-12.616-13.781-22.719 0.4603-1.8824 2.7667-6.1508 6-10.719 3.2333-4.5679 7.3613-9.6516 11.406-14.375 4.0449-4.7233 8.0138-9.0783 10.969-12.25 0.044-0.048 0.05-0.078 0.094-0.125zm-251.22 28.312c-0.0003 0-3.1946 0.575-3.3437 0.6875-0.1492 0.1126-0.2088 0.1513-0.25 0.1875-0.083 0.072-0.097 0.098-0.125 0.125-0.057 0.054-0.084 0.084-0.125 0.125-0.083 0.083-0.1888 0.1863-0.3126 0.3125-0.2475 0.2524-0.5909 0.6039-1.0312 1.0625-0.8806 0.9174-2.1201 2.2269-3.625 3.8438-3.0098 3.2337-7.0477 7.6925-11.188 12.531-4.1398 4.8387-8.3831 10.044-11.844 14.938-3.4607 4.8935-6.1869 9.2488-7.2188 13.469-3.4981 14.306 5.3123 28.844 19.625 32.344 14.311 3.4993 28.815-5.3513 32.312-19.656 1.0329-4.2244 0.6002-9.3093-0.2187-15.25-0.819-5.9407-2.1792-12.545-3.625-18.75-2.8917-12.41-6.125-23.25-6.125-23.25a4.0004 4.0004 0 0 0 -2.9063 -2.7188zm156.31 0c-0.0003 0-3.1945 0.5751-3.3438 0.6875-0.1492 0.1125-0.2086 0.1513-0.25 0.1875-0.083 0.072-0.097 0.098-0.125 0.125-0.057 0.054-0.083 0.084-0.125 0.125-0.083 0.083-0.1886 0.1863-0.3124 0.3125-0.2478 0.2524-0.5905 0.6039-1.0313 1.0625-0.8815 0.9174-2.1499 2.2269-3.6563 3.8438-3.0127 3.2337-7.0437 7.6925-11.187 12.531-4.1438 4.8387-8.3801 10.044-11.844 14.938-3.4637 4.8936-6.1865 9.2472-7.2188 13.469-3.4995 14.313 5.3451 28.844 19.656 32.344 14.311 3.4993 28.815-5.3513 32.312-19.656 1.0329-4.2244 0.6002-9.3093-0.2188-15.25-0.8189-5.9407-2.1791-12.545-3.625-18.75-2.8916-12.41-6.125-23.25-6.125-23.25a4.0004 4.0004 0 0 0 -2.9062 -2.7188zm156.31 0c-0.0003 0-3.1945 0.5751-3.3437 0.6875-0.1493 0.1125-0.2087 0.1513-0.25 0.1875-0.083 0.072-0.097 0.098-0.125 0.125-0.057 0.054-0.083 0.084-0.125 0.125-0.083 0.083-0.1887 0.1863-0.3126 0.3125-0.2477 0.2524-0.5904 0.6039-1.0312 1.0625-0.8815 0.9174-2.1499 2.2269-3.6562 3.8438-3.0128 3.2338-7.0438 7.6925-11.188 12.531-4.1437 4.8387-8.38 10.044-11.844 14.938-3.4637 4.8936-6.1865 9.2472-7.2187 13.469-3.4997 14.313 5.3451 28.844 19.656 32.344 14.311 3.4993 28.815-5.3514 32.312-19.656 1.0329-4.2244 0.6002-9.3093-0.2187-15.25-0.819-5.9407-2.1792-12.545-3.625-18.75-2.8917-12.41-6.125-23.25-6.125-23.25a4.0004 4.0004 0 0 0 -2.9063 -2.7188zm-315.5 11.688c1.1643 4.2028 2.6742 9.8674 4.125 16.094 1.4117 6.0583 2.7355 12.486 3.5 18.031 0.7645 5.5456 0.8346 10.402 0.375 12.281-2.4722 10.11-12.583 16.252-22.688 13.781-10.103-2.4703-16.222-12.61-13.75-22.719 0.4606-1.8839 2.7695-6.1507 6-10.719 3.2305-4.568 7.3339-9.6516 11.375-14.375 4.0411-4.7233 8.0167-9.0783 10.969-12.25 0.044-0.047 0.05-0.078 0.094-0.125zm156.31 0c1.1643 4.2028 2.6742 9.8674 4.125 16.094 1.4117 6.0583 2.7355 12.486 3.5 18.031 0.7645 5.5456 0.8346 10.402 0.375 12.281-2.4722 10.11-12.583 16.252-22.688 13.781-10.104-2.4706-16.252-12.616-13.781-22.719 0.4603-1.8824 2.7668-6.1508 6-10.719 3.2333-4.5679 7.3613-9.6516 11.406-14.375 4.045-4.7233 8.0138-9.0783 10.969-12.25 0.044-0.048 0.05-0.078 0.094-0.125zm156.31 0c1.1643 4.2028 2.6742 9.8674 4.125 16.094 1.4117 6.0583 2.7355 12.486 3.5 18.031 0.7645 5.5456 0.8346 10.402 0.375 12.281-2.4723 10.111-12.583 16.252-22.688 13.781-10.104-2.4707-16.252-12.616-13.781-22.719 0.4602-1.8823 2.7667-6.1508 6-10.719 3.2332-4.5679 7.3612-9.6516 11.406-14.375 4.045-4.7233 8.0138-9.0783 10.969-12.25 0.044-0.048 0.05-0.078 0.094-0.125z"/>
    </g>
  </g>
  <metadata>
    <rdf:RDF>
      <cc:Work>
        <dc:format>image/svg+xml</dc:format>
        <dc:type rdf:resource="http://purl.org/dc/dcmitype/StillImage"/>
        <cc:license rdf:resource="http://creativecommons.org/licenses/publicdomain/"/>
        <dc:publisher>
          <cc:Agent rdf:about="http://openclipart.org/">
            <dc:title>Openclipart</dc:title>
          </cc:Agent>
        </dc:publisher>
        <dc:title>Raincloud</dc:title>
        <dc:date>2012-01-20T07:29:23</dc:date>
        <dc:description/>
        <dc:source>https://openclipart.org/detail/167265/raincloud-by-halattas</dc:source>
        <dc:creator>
          <cc:Agent>
            <dc:title>halattas</dc:title>
          </cc:Agent>
        </dc:creator>
        <dc:subject>
          <rdf:Bag>
            <rdf:li>Cloud</rdf:li>
            <rdf:li>Rain</rdf:li>
            <rdf:li>Raincloud</rdf:li>
          </rdf:Bag>
        </dc:subject>
      </cc:Work>
      <cc:License rdf:about="http://creativecommons.org/licenses/publicdomain/">
        <cc:permits rdf:resource="http://creativecommons.org/ns#Reproduction"/>
        <cc:permits rdf:resource="http://creativecommons.org/ns#Distribution"/>
        <cc:permits rdf:resource="http://creativecommons.org/ns#DerivativeWorks"/>
      </cc:License>
    </rdf:RDF>
  </metadata>
</svg>
